mtllib sluice_box_water.mtl
o water
v 0.8125 0.5006160370004289 0.9996947772713206
v 0.8125 0.000617036981148178 -0.00030545578804308526
v 0.8125 0.5005601352760255 0.9997227280711074
v 0.8125 0.000561135256744727 -0.0002775049882561831
v 0.1875 0.000617036981148178 -0.00030545578804308526
v 0.1875 0.5006160370004289 0.9996947772713206
v 0.1875 0.000561135256744727 -0.0002775049882561831
v 0.1875 0.5005601352760255 0.9997227280711074
vt 0.6875 0.5
vt 0.6875 1
vt 0.3125 0.5
vt 0.6875 1
vt 0.3125 1
vt 0.3125 0.5
vn 0 0.8944275904545491 -0.44721279658979957
vn 0 0.8944275904545491 -0.44721279658979957
vn 0 0.8944275904545491 -0.44721279658979957
vn 0 0.8944275904545491 -0.44721279658979957
vn 0 0.8944275904545491 -0.44721279658979957
vn 0 0.8944275904545491 -0.44721279658979957
usemtl water
f 5/1/1 6/2/2 2/3/3
f 6/4/4 1/5/5 2/6/6
