mtllib sluice_box_water.mtl
v 0.8125 1.000616037000429 0.9996947772713206
v 0.8125 0.500617036981148 -0.00030545578804308526
v 0.8125 1.0005601352760254 0.9997227280711075
v 0.8125 0.5005611352567446 -0.0002775049882561831
v 0.1875 0.500617036981148 -0.00030545578804308526
v 0.1875 1.000616037000429 0.9996947772713206
v 0.1875 0.5005611352567446 -0.0002775049882561831
v 0.1875 1.0005601352760254 0.9997227280711075
vt 0.6875 0.5
vt 0.6875 1
vt 0.3125 0.5
vt 0.6875 1
vt 0.3125 1
vt 0.3125 0.5
vn 0 0.8944275904545491 -0.44721279658979957
vn 0 0.8944275904545491 -0.44721279658979957
vn 0 0.8944275904545491 -0.44721279658979957
vn 0 0.8944275904545491 -0.44721279658979957
vn 0 0.8944275904545491 -0.44721279658979957
vn 0 0.8944275904545491 -0.44721279658979957
usemtl water
f 5/1/1 6/2/2 2/3/3
f 6/4/4 1/5/5 2/6/6
