mtllib sluice_box.mtl
o ramp
v 0.8125 1.0000011180319914 1.000002236068976
v 0.8125 0.5000021180127107 0.000002003009612394635
v 0.8125 0.9440993936285821 1.0279530358558384
v 0.8125 0.4441003936093013 0.02795280279647483
v 0.1875 0.5000021180127107 0.000002003009612394635
v 0.1875 1.0000011180319914 1.000002236068976
v 0.1875 0.4441003936093013 0.02795280279647483
v 0.1875 0.9440993936285821 1.0279530358558384
vt 0.8125 0
vt 0.8125 1
vt 0.1875 0
vt 0.8125 1
vt 0.1875 1
vt 0.1875 0
vt 0.1875 1
vt 0.1875 0
vt 0.8125 1
vt 0.1875 0
vt 0.8125 0
vt 0.8125 1
vt 0.8125 0.9375
vt 0.8125 1
vt 0.1875 0.9375
vt 0.8125 1
vt 0.1875 1
vt 0.1875 0.9375
vt 0.1875 0.0625
vt 0.1875 0
vt 0.8125 0.0625
vt 0.1875 0
vt 0.8125 0
vt 0.8125 0.0625
vn 0 0.8944275904545491 -0.44721279658979957
vn 0 0.8944275904545491 -0.44721279658979957
vn 0 0.8944275904545491 -0.44721279658979957
vn 0 0.8944275904545491 -0.44721279658979957
vn 0 0.8944275904545491 -0.44721279658979957
vn 0 0.8944275904545491 -0.44721279658979957
vn 0 -0.8944275904545491 0.44721279658979957
vn 0 -0.8944275904545491 0.44721279658979957
vn 0 -0.8944275904545491 0.44721279658979957
vn 0 -0.8944275904545491 0.44721279658979957
vn 0 -0.8944275904545491 0.44721279658979957
vn 0 -0.8944275904545491 0.44721279658979957
vn 0 0.44721279658979957 0.8944275904545491
vn 0 0.44721279658979957 0.8944275904545491
vn 0 0.44721279658979957 0.8944275904545491
vn 0 0.44721279658979957 0.8944275904545491
vn 0 0.44721279658979957 0.8944275904545491
vn 0 0.44721279658979957 0.8944275904545491
vn 0 -0.44721279658979957 -0.8944275904545491
vn 0 -0.44721279658979957 -0.8944275904545491
vn 0 -0.44721279658979957 -0.8944275904545491
vn 0 -0.44721279658979957 -0.8944275904545491
vn 0 -0.44721279658979957 -0.8944275904545491
vn 0 -0.44721279658979957 -0.8944275904545491
usemtl wood
f 5/1/1 6/2/2 2/3/3
f 6/4/4 1/5/5 2/6/6
f 8/7/7 7/8/8 3/9/9
f 7/10/10 4/11/11 3/12/12
f 6/13/13 8/14/14 1/15/15
f 8/16/16 3/17/17 1/18/18
f 2/19/19 4/20/20 5/21/21
f 4/22/22 7/23/23 5/24/24
o rail
v 0.1875 1.1118034488068187 0.944098400426275
v 0.1875 0.6118055668195292 -0.055899596564112475
v 0.1875 0.8881965511931813 1.0559015995737249
v 0.1875 0.3881986692058921 0.055903602583337375
v 0.125 0.6118055668195292 -0.055899596564112475
v 0.125 1.1118034488068187 0.944098400426275
v 0.125 0.3881986692058921 0.055903602583337375
v 0.125 0.8881965511931813 1.0559015995737249
vt 0.25 1
vt 0 1
vt 0.25 0
vt 0 1
vt 0 0
vt 0.25 0
vt 0.3125 0
vt 0.5625 0
vt 0.3125 1
vt 0.5625 0
vt 0.5625 1
vt 0.3125 1
vt 0.3125 0
vt 0.3125 1
vt 0.25 0
vt 0.3125 1
vt 0.25 1
vt 0.25 0
vt 0.5625 1
vt 0.5625 0
vt 0.625 1
vt 0.5625 0
vt 0.625 0
vt 0.625 1
vt 0.25 1
vt 0 1
vt 0.25 0.9375
vt 0 1
vt 0 0.9375
vt 0.25 0.9375
vt 0.25 0.0625
vt 0 0.0625
vt 0.25 0
vt 0 0.0625
vt 0 0
vt 0.25 0
vn 1 0 0
vn 1 0 0
vn 1 0 0
vn 1 0 0
vn 1 0 0
vn 1 0 0
vn -1 0 0
vn -1 0 0
vn -1 0 0
vn -1 0 0
vn -1 0 0
vn -1 0 0
vn 0 0.8944275904545491 -0.44721279658979957
vn 0 0.8944275904545491 -0.44721279658979957
vn 0 0.8944275904545491 -0.44721279658979957
vn 0 0.8944275904545491 -0.44721279658979957
vn 0 0.8944275904545491 -0.44721279658979957
vn 0 0.8944275904545491 -0.44721279658979957
vn 0 -0.8944275904545491 0.44721279658979957
vn 0 -0.8944275904545491 0.44721279658979957
vn 0 -0.8944275904545491 0.44721279658979957
vn 0 -0.8944275904545491 0.44721279658979957
vn 0 -0.8944275904545491 0.44721279658979957
vn 0 -0.8944275904545491 0.44721279658979957
vn 0 0.44721279658979957 0.8944275904545491
vn 0 0.44721279658979957 0.8944275904545491
vn 0 0.44721279658979957 0.8944275904545491
vn 0 0.44721279658979957 0.8944275904545491
vn 0 0.44721279658979957 0.8944275904545491
vn 0 0.44721279658979957 0.8944275904545491
vn 0 -0.44721279658979957 -0.8944275904545491
vn 0 -0.44721279658979957 -0.8944275904545491
vn 0 -0.44721279658979957 -0.8944275904545491
vn 0 -0.44721279658979957 -0.8944275904545491
vn 0 -0.44721279658979957 -0.8944275904545491
vn 0 -0.44721279658979957 -0.8944275904545491
usemtl wood
f 9/25/25 11/26/26 10/27/27
f 11/28/28 12/29/29 10/30/30
f 13/31/31 15/32/32 14/33/33
f 15/34/34 16/35/35 14/36/36
f 13/37/37 14/38/38 10/39/39
f 14/40/40 9/41/41 10/42/42
f 16/43/43 15/44/44 11/45/45
f 15/46/46 12/47/47 11/48/48
f 14/49/49 16/50/50 9/51/51
f 16/52/52 11/53/53 9/54/54
f 10/55/55 12/56/56 13/57/57
f 12/58/58 15/59/59 13/60/60
o rail
v 0.875 1.1118034488068187 0.944098400426275
v 0.875 0.6118055668195292 -0.055899596564112475
v 0.875 0.8881965511931813 1.0559015995737249
v 0.875 0.3881986692058921 0.055903602583337375
v 0.8125 0.6118055668195292 -0.055899596564112475
v 0.8125 1.1118034488068187 0.944098400426275
v 0.8125 0.3881986692058921 0.055903602583337375
v 0.8125 0.8881965511931813 1.0559015995737249
vt 0.25 1
vt 0 1
vt 0.25 0
vt 0 1
vt 0 0
vt 0.25 0
vt 0.3125 0
vt 0.5625 0
vt 0.3125 1
vt 0.5625 0
vt 0.5625 1
vt 0.3125 1
vt 0.3125 0
vt 0.3125 1
vt 0.25 0
vt 0.3125 1
vt 0.25 1
vt 0.25 0
vt 0.5625 1
vt 0.5625 0
vt 0.625 1
vt 0.5625 0
vt 0.625 0
vt 0.625 1
vt 0.25 1
vt 0 1
vt 0.25 0.9375
vt 0 1
vt 0 0.9375
vt 0.25 0.9375
vt 0.25 0.0625
vt 0 0.0625
vt 0.25 0
vt 0 0.0625
vt 0 0
vt 0.25 0
vn 1 0 0
vn 1 0 0
vn 1 0 0
vn 1 0 0
vn 1 0 0
vn 1 0 0
vn -1 0 0
vn -1 0 0
vn -1 0 0
vn -1 0 0
vn -1 0 0
vn -1 0 0
vn 0 0.8944275904545491 -0.44721279658979957
vn 0 0.8944275904545491 -0.44721279658979957
vn 0 0.8944275904545491 -0.44721279658979957
vn 0 0.8944275904545491 -0.44721279658979957
vn 0 0.8944275904545491 -0.44721279658979957
vn 0 0.8944275904545491 -0.44721279658979957
vn 0 -0.8944275904545491 0.44721279658979957
vn 0 -0.8944275904545491 0.44721279658979957
vn 0 -0.8944275904545491 0.44721279658979957
vn 0 -0.8944275904545491 0.44721279658979957
vn 0 -0.8944275904545491 0.44721279658979957
vn 0 -0.8944275904545491 0.44721279658979957
vn 0 0.44721279658979957 0.8944275904545491
vn 0 0.44721279658979957 0.8944275904545491
vn 0 0.44721279658979957 0.8944275904545491
vn 0 0.44721279658979957 0.8944275904545491
vn 0 0.44721279658979957 0.8944275904545491
vn 0 0.44721279658979957 0.8944275904545491
vn 0 -0.44721279658979957 -0.8944275904545491
vn 0 -0.44721279658979957 -0.8944275904545491
vn 0 -0.44721279658979957 -0.8944275904545491
vn 0 -0.44721279658979957 -0.8944275904545491
vn 0 -0.44721279658979957 -0.8944275904545491
vn 0 -0.44721279658979957 -0.8944275904545491
usemtl wood
f 17/61/61 19/62/62 18/63/63
f 19/64/64 20/65/65 18/66/66
f 21/67/67 23/68/68 22/69/69
f 23/70/70 24/71/71 22/72/72
f 21/73/73 22/74/74 18/75/75
f 22/76/76 17/77/77 18/78/78
f 24/79/79 23/80/80 19/81/81
f 23/82/82 20/83/83 19/84/84
f 22/85/85 24/86/86 17/87/87
f 24/88/88 19/89/89 17/90/90
f 18/91/91 20/92/92 21/93/93
f 20/94/94 23/95/95 21/96/96
